# xmcd
#
# Track frame offsets:
#	150
#	17150
#	31645
#	45938
#	58932
#	74373
#	87911
#	101003
#	116297
#	133593
#	149757
#	169553
#	191152
#	217424
#	235444
#
# Disc length: 3338 seconds
#
# Revision: 0
# Processed by: cddbd v1.5.2PL0 Copyright (c) Steve Scherf et al.
# Submitted via: EasyCDDAExtractor 15.3.0.1
#
DISCID=db0d080f
DTITLE=Boban Marković Orkestar - Golden Horns - Best Of Boban Marković Orkesta
DTITLE=r
DYEAR=2012
DGENRE=Traditional
TTITLE0=Khelipe E Cheasa
TTITLE1=Mundo Čoček
TTITLE2=Sina Nari
TTITLE3=Voz
TTITLE4=Rromano Bijav
TTITLE5=Od Srca
TTITLE6=Udri Mile
TTITLE7=Šljivovica
TTITLE8=Džumbus Funk
TTITLE9=Hava Naguila
TTITLE10=Sat
TTITLE11=Obećanje
TTITLE12=Ederlezi
TTITLE13=Cinnamon Girl
TTITLE14=Go Marko Go [ Robert Soko Remix ]
EXTD=
EXTT0=
EXTT1=
EXTT2=
EXTT3=
EXTT4=
EXTT5=
EXTT6=
EXTT7=
EXTT8=
EXTT9=
EXTT10=
EXTT11=
EXTT12=
EXTT13=
EXTT14=
PLAYORDER=
